{"title":"22 Jump Street 2014 TS Xvid Ac3 5.1-MiLLENiUM","uid":10657426,"size":1867258134,"categoryP":"video","categoryS":"movies","magnet":"?xt=urn:btih:42bcd1f90bfb741e6dfe4e4c033a581fe755ac9a&amp;dn=22+Jump+Street+2014+TS+Xvid+Ac3+5.1-MiLLENiUM&amp;tr=udp%3A%2F%2Ftracker.openbittorrent.com%3A80&amp;tr=udp%3A%2F%2Fopen.demonii.com%3A1337&amp;tr=udp%3A%2F%2Ftracker.coppersurfer.tk%3A6969&amp;tr=udp%3A%2F%2Fexodus.desync.com%3A6969","seeders":6,"leechers":4,"uploader":"lokioddin","files":6,"time":1406679964,"description":"SilverTorrent - Clean And Verified Torrents Download\n\n\n\n22 Jump Street 2014 TS Xvid Ac3 5 1-MiLLENiUM\n\nGeneral &lt;a href=&quot;\nhttp://www.imdb.com/title/tt2294449/&quot; rel=&quot;nofollow&quot; target=&quot;_NEW&quot;&gt;\nhttp://www.imdb.com/title/tt2294449/&lt;/a&gt;\nComplete name                            : 22.Jump.Street.2014.TS Xvid Ac3 5.1-MiLLENiUM.avi\nSource                                   : A Good Friend [Thanks bro ]\nFormat                                   : AVI\nFormat/Info                              : Audio Video Interleave\nFile size                                : 1.56 GiB\nDuration                                 : 1h 45mn\nOverall bit rate                         : 2 109 Kbps\nWriting application                      : VirtualDubMod 1.5.10.2 (build 2540/release)\nWriting library                          : VirtualDubMod build 2540/release\n\nVideo\nID                                       : 0\nFormat                                   : MPEG-4 Visual\nFormat profile                           : Advanced Simple@L5\nFormat settings, BVOP                    : 2\nFormat settings, QPel                    : Yes\nFormat settings, GMC                     : No warppoints\nFormat settings, Matrix                  : Default (MPEG)\nCodec ID                                 : XVID\nCodec ID/Hint                            : XviD\nDuration                                 : 1h 45mn\nBit rate                                 : 1 650 Kbps\nWidth                                    : 720 pixels\nHeight                                   : 304 pixels\nDisplay aspect ratio                     : 2.35:1\nFrame rate                               : 29.970 fps\nColor space                              : YUV\nChroma subsampling                       : 4:2:0\nBit depth                                : 8 bits\nScan type                                : Progressive\nCompression mode                         : Lossy\nBits/(Pixel*Frame)                       : 0.251\nStream size                              : 1.22 GiB (78%)\nWriting library                          : XviD 1.2.1 (UTC 2008-12-04)\n\nAudio\nID                                       : 1\nFormat                                   : AC-3\nFormat/Info                              : Audio Coding 3\nMode extension                           : CM (complete main)\nCodec ID                                 : 2000\nDuration                                 : 1h 45mn\nBit rate mode                            : Constant\nBit rate                                 : 448 Kbps\nChannel(s)                               : 6 channels\nChannel positions                        : Front: L C R, Side: L R, LFE\nSampling rate                            : 48.0 KHz\nBit depth                                : 16 bits\nCompression mode                         : Lossy\nDelay relative to video                  : 20ms\nStream size                              : 339 MiB (21%)\nAlignment                                : Split accross interleaves\nInterleave, duration                     : 33 ms (1.00 video frame)\nInterleave, preload duration             : 500 ms\n\n &lt;a href=&quot;\nhttp://s29.postimg.org/w26il6s4n/image.png&quot; rel=&quot;nofollow&quot; target=&quot;_NEW&quot;&gt;\nhttp://s29.postimg.org/w26il6s4n/image.png&lt;/a&gt;\n &lt;a href=&quot;\nhttp://s29.postimg.org/su21855uv/image.png&quot; rel=&quot;nofollow&quot; target=&quot;_NEW&quot;&gt;\nhttp://s29.postimg.org/su21855uv/image.png&lt;/a&gt;\n &lt;a href=&quot;\nhttp://s29.postimg.org/cbeafbief/image.png&quot; rel=&quot;nofollow&quot; target=&quot;_NEW&quot;&gt;\nhttp://s29.postimg.org/cbeafbief/image.png&lt;/a&gt;\n &lt;a href=&quot;\nhttp://s29.postimg.org/np0tqisx3/image.png&quot; rel=&quot;nofollow&quot; target=&quot;_NEW&quot;&gt;\nhttp://s29.postimg.org/np0tqisx3/image.png&lt;/a&gt;\n &lt;a href=&quot;\nhttp://s29.postimg.org/qzts45887/image.png&quot; rel=&quot;nofollow&quot; target=&quot;_NEW&quot;&gt;\nhttp://s29.postimg.org/qzts45887/image.png&lt;/a&gt;\n &lt;a href=&quot;\nhttp://s29.postimg.org/ojryqaq5j/image.png&quot; rel=&quot;nofollow&quot; target=&quot;_NEW&quot;&gt;\nhttp://s29.postimg.org/ojryqaq5j/image.png&lt;/a&gt;\n\nSilverTorrent - Clean And Verified Torrents Download\n","torrent":{"xt":"urn:btih:42bcd1f90bfb741e6dfe4e4c033a581fe755ac9a","amp;dn":"22+Jump+Street+2014+TS+Xvid+Ac3+5.1-MiLLENiUM","amp;tr":["udp%3A%2F%2Ftracker.openbittorrent.com%3A80","udp%3A%2F%2Fopen.demonii.com%3A1337","udp%3A%2F%2Ftracker.coppersurfer.tk%3A6969","udp%3A%2F%2Fexodus.desync.com%3A6969"],"infoHash":"42bcd1f90bfb741e6dfe4e4c033a581fe755ac9a","infoHashBuffer":{"type":"Buffer","data":[66,188,209,249,11,251,116,30,109,254,78,76,3,58,88,31,231,85,172,154]},"announce":[],"urlList":[]}}